<svg xmlns="http://www.w3.org/2000/svg" xmlns:xlink="http://www.w3.org/1999/xlink" width="100" zoomAndPan="magnify" viewBox="0 0 75 74.999997" height="100" preserveAspectRatio="xMidYMid meet" version="1.0"><defs><g/></defs><g fill="#ff577f" fill-opacity="1"><g transform="translate(0.841923, 74.222318)"><g><path d="M 32.359375 0 L 6.375 0 L 6.375 -73.3125 L 32.578125 -73.3125 C 39.953125 -73.3125 46.304688 -71.847656 51.640625 -68.921875 C 56.972656 -65.992188 61.066406 -61.796875 63.921875 -56.328125 C 66.785156 -50.867188 68.21875 -44.332031 68.21875 -36.71875 C 68.21875 -29.082031 66.78125 -22.519531 63.90625 -17.03125 C 61.03125 -11.550781 56.914062 -7.34375 51.5625 -4.40625 C 46.207031 -1.46875 39.804688 0 32.359375 0 Z M 21.875 -13.28125 L 31.71875 -13.28125 C 38.613281 -13.28125 43.84375 -15.140625 47.40625 -18.859375 C 50.976562 -22.585938 52.765625 -28.539062 52.765625 -36.71875 C 52.765625 -44.863281 50.976562 -50.785156 47.40625 -54.484375 C 43.84375 -58.179688 38.625 -60.03125 31.75 -60.03125 L 21.875 -60.03125 Z M 21.875 -13.28125 "/></g></g></g></svg>