<svg xmlns="http://www.w3.org/2000/svg" xmlns:xlink="http://www.w3.org/1999/xlink" width="3817" zoomAndPan="magnify" viewBox="0 0 2862.75 425.249996" height="566" preserveAspectRatio="xMidYMid meet" version="1.0"><defs><g/></defs><g fill="#ff577f" fill-opacity="1"><g transform="translate(100.97101, 403.516952)"><g><path d="M 34.65625 -381.703125 L 190.046875 -381.703125 C 232.273438 -381.703125 268.640625 -374.117188 299.140625 -358.953125 C 329.640625 -343.796875 353.007812 -321.867188 369.25 -293.171875 C 385.488281 -264.484375 393.609375 -230.46875 393.609375 -191.125 C 393.609375 -151.414062 385.578125 -117.210938 369.515625 -88.515625 C 353.453125 -59.828125 330.171875 -37.898438 299.671875 -22.734375 C 269.171875 -7.578125 232.628906 0 190.046875 0 L 34.65625 0 Z M 183 -80.125 C 220.539062 -80.125 248.515625 -89.328125 266.921875 -107.734375 C 285.328125 -126.148438 294.53125 -153.945312 294.53125 -191.125 C 294.53125 -228.300781 285.328125 -256.003906 266.921875 -274.234375 C 248.515625 -292.460938 220.539062 -301.578125 183 -301.578125 L 134.265625 -301.578125 L 134.265625 -80.125 Z M 183 -80.125 "/></g></g></g><g fill="#ff577f" fill-opacity="1"><g transform="translate(519.491513, 403.516952)"><g><path d="M 273.953125 -114.78125 L 109.375 -114.78125 C 112.257812 -97.457031 118.570312 -85.003906 128.3125 -77.421875 C 138.0625 -69.835938 151.957031 -66.046875 170 -66.046875 C 183 -66.046875 196.175781 -68.210938 209.53125 -72.546875 C 222.882812 -76.878906 234.796875 -82.835938 245.265625 -90.421875 L 269.625 -27.078125 C 256.269531 -17.328125 240.207031 -9.65625 221.4375 -4.0625 C 202.664062 1.53125 183.898438 4.328125 165.140625 4.328125 C 134.453125 4.328125 107.914062 -1.265625 85.53125 -12.453125 C 63.15625 -23.640625 45.921875 -39.703125 33.828125 -60.640625 C 21.742188 -81.578125 15.703125 -106.117188 15.703125 -134.265625 C 15.703125 -160.984375 21.382812 -184.898438 32.75 -206.015625 C 44.125 -227.128906 60.003906 -243.550781 80.390625 -255.28125 C 100.785156 -267.007812 123.800781 -272.875 149.4375 -272.875 C 187.695312 -272.875 218.015625 -260.691406 240.390625 -236.328125 C 262.765625 -211.960938 273.953125 -178.664062 273.953125 -136.4375 Z M 152.140625 -207.90625 C 126.515625 -207.90625 111.894531 -192.023438 108.28125 -160.265625 L 193.28125 -160.265625 C 191.125 -192.023438 177.410156 -207.90625 152.140625 -207.90625 Z M 152.140625 -207.90625 "/></g></g></g><g fill="#ff577f" fill-opacity="1"><g transform="translate(809.153278, 403.516952)"><g><path d="M 210.078125 -265.84375 L 304.28125 -265.84375 L 185.703125 0 L 106.125 0 L -10.828125 -265.84375 L 89.875 -265.84375 L 148.34375 -115.859375 Z M 210.078125 -265.84375 "/></g></g></g><g fill="#ff577f" fill-opacity="1"><g transform="translate(1102.063582, 403.516952)"><g><path d="M 40.609375 -215.484375 L 17.328125 -381.703125 L 127.78125 -381.703125 L 105.03125 -215.484375 Z M 40.609375 -215.484375 "/></g></g></g><g fill="#ff577f" fill-opacity="1"><g transform="translate(1247.165185, 403.516952)"><g><path d="M 135.359375 4.328125 C 109.734375 4.328125 86.085938 1.625 64.421875 -3.78125 C 42.765625 -9.195312 24.539062 -17.140625 9.75 -27.609375 L 34.109375 -93.125 C 48.546875 -83.738281 64.96875 -76.25 83.375 -70.65625 C 101.78125 -65.0625 119.46875 -62.265625 136.4375 -62.265625 C 146.90625 -62.265625 155.023438 -63.796875 160.796875 -66.859375 C 166.578125 -69.929688 169.46875 -74.175781 169.46875 -79.59375 C 169.46875 -84.28125 167.390625 -87.882812 163.234375 -90.40625 C 159.085938 -92.9375 150.695312 -95.644531 138.0625 -98.53125 L 95.296875 -108.28125 C 68.222656 -114.414062 48.726562 -123.4375 36.8125 -135.34375 C 24.90625 -147.257812 18.953125 -164.226562 18.953125 -186.25 C 18.953125 -203.21875 24.003906 -218.285156 34.109375 -231.453125 C 44.210938 -244.628906 58.378906 -254.828125 76.609375 -262.046875 C 94.835938 -269.265625 115.503906 -272.875 138.609375 -272.875 C 157.734375 -272.875 176.769531 -270.078125 195.71875 -264.484375 C 214.675781 -258.890625 231.914062 -251.039062 247.4375 -240.9375 L 222.53125 -178.125 C 208.09375 -187.144531 193.5625 -194.09375 178.9375 -198.96875 C 164.320312 -203.84375 150.515625 -206.28125 137.515625 -206.28125 C 127.046875 -206.28125 118.925781 -204.65625 113.15625 -201.40625 C 107.382812 -198.15625 104.5 -193.460938 104.5 -187.328125 C 104.5 -183.722656 106.300781 -180.742188 109.90625 -178.390625 C 113.519531 -176.046875 119.835938 -173.789062 128.859375 -171.625 L 173.796875 -161.34375 C 201.953125 -155.207031 222.34375 -145.734375 234.96875 -132.921875 C 247.601562 -120.109375 253.921875 -102.691406 253.921875 -80.671875 C 253.921875 -54.316406 243.363281 -33.5625 222.25 -18.40625 C 201.132812 -3.25 172.171875 4.328125 135.359375 4.328125 Z M 135.359375 4.328125 "/></g></g></g><g fill="#ff577f" fill-opacity="1"><g transform="translate(1512.462821, 403.516952)"><g/></g></g><g fill="#ff577f" fill-opacity="1"><g transform="translate(1667.309998, 403.516952)"><g><path d="M 288.03125 -381.703125 L 385.5 -381.703125 L 385.5 0 L 288.03125 0 L 288.03125 -154.3125 L 132.109375 -154.3125 L 132.109375 0 L 34.65625 0 L 34.65625 -381.703125 L 132.109375 -381.703125 L 132.109375 -233.359375 L 288.03125 -233.359375 Z M 288.03125 -381.703125 "/></g></g></g><g fill="#ff577f" fill-opacity="1"><g transform="translate(2087.454811, 403.516952)"><g><path d="M 296.703125 -266.375 L 296.703125 0 L 203.03125 0 L 203.03125 -35.734375 C 194.726562 -22.742188 184.171875 -12.816406 171.359375 -5.953125 C 158.546875 0.898438 143.835938 4.328125 127.234375 4.328125 C 92.941406 4.328125 67.492188 -5.144531 50.890625 -24.09375 C 34.285156 -43.039062 25.984375 -71.828125 25.984375 -110.453125 L 25.984375 -266.375 L 122.359375 -266.375 L 122.359375 -108.28125 C 122.359375 -82.289062 133.546875 -69.296875 155.921875 -69.296875 C 168.921875 -69.296875 179.570312 -73.988281 187.875 -83.375 C 196.175781 -92.757812 200.328125 -105.035156 200.328125 -120.203125 L 200.328125 -266.375 Z M 296.703125 -266.375 "/></g></g></g><g fill="#ff577f" fill-opacity="1"><g transform="translate(2412.309057, 403.516952)"><g><path d="M 204.65625 -272.875 C 227.757812 -272.875 248.15625 -267.28125 265.84375 -256.09375 C 283.53125 -244.90625 297.332031 -228.929688 307.25 -208.171875 C 317.175781 -187.421875 322.140625 -163.328125 322.140625 -135.890625 C 322.140625 -108.460938 317.175781 -84.097656 307.25 -62.796875 C 297.332031 -41.503906 283.4375 -24.992188 265.5625 -13.265625 C 247.695312 -1.535156 227.394531 4.328125 204.65625 4.328125 C 186.96875 4.328125 170.8125 0.71875 156.1875 -6.5 C 141.570312 -13.71875 130.476562 -23.644531 122.90625 -36.28125 L 122.90625 0 L 28.15625 0 L 28.15625 -381.703125 L 124.53125 -381.703125 L 124.53125 -234.984375 C 132.46875 -246.523438 143.5625 -255.722656 157.8125 -262.578125 C 172.070312 -269.441406 187.6875 -272.875 204.65625 -272.875 Z M 174.875 -67.671875 C 191.476562 -67.671875 204.289062 -73.535156 213.3125 -85.265625 C 222.34375 -97.003906 226.859375 -113.878906 226.859375 -135.890625 C 226.859375 -156.828125 222.4375 -172.890625 213.59375 -184.078125 C 204.75 -195.273438 192.023438 -200.875 175.421875 -200.875 C 158.453125 -200.875 145.457031 -195.1875 136.4375 -183.8125 C 127.414062 -172.445312 122.90625 -156.113281 122.90625 -134.8125 C 122.90625 -113.15625 127.414062 -96.550781 136.4375 -85 C 145.457031 -73.445312 158.269531 -67.671875 174.875 -67.671875 Z M 174.875 -67.671875 "/></g></g></g></svg>